<svg width="16" height="30" viewBox="0 0 16 30" fill="none" xmlns="http://www.w3.org/2000/svg">
<path d="M12.3021 6.037C13.3011 6.037 14.3 6.037 14.9993 5.72451C15.3988 4.8912 15.5986 3.74541 15.5986 2.59962C15.3988 2.59962 15.4987 2.28713 15.3988 2.18297C15.3988 1.97464 15.0992 1.97464 15.0992 1.76631C14.7995 1.55799 14.5997 1.34966 14.3999 1.14134C13.7007 0.933013 13.0014 0.82885 12.2023 0.620524C11.4031 0.620524 10.3043 0.516359 9.60503 0.724685C7.0078 0.724685 5.60929 1.87048 4.31067 3.2246C4.31067 3.32876 4.31067 3.43292 4.21078 3.43292C3.61142 5.09953 4.11089 7.18279 4.01099 9.26605C4.11089 9.6827 4.11088 10.3077 4.21078 10.7243C3.21184 11.0368 2.01312 11.141 0.814403 11.2451C0.514723 11.5576 0.614615 12.3909 0.614615 13.0159C0.714509 13.6409 0.914297 14.1617 1.01419 14.6825C1.21398 14.8908 1.61355 15.0992 1.81334 15.2033C1.91323 15.2033 1.91323 15.3075 1.91323 15.3075C2.4127 15.62 3.41163 15.3075 4.21078 15.4117C4.11088 17.4949 4.51046 19.474 4.21078 21.3489C4.21078 21.6614 4.51046 21.7656 4.41057 22.1822C4.41057 23.2239 4.31067 24.2655 4.61035 24.9946C4.31067 25.5155 4.11088 26.0363 4.21078 26.8696C4.31067 26.8696 4.31067 27.0779 4.31067 27.1821C4.21078 27.7029 4.91003 27.3904 4.81014 27.9112C5.00993 28.432 4.41057 28.1195 4.41057 28.432V29.3695C4.91003 29.682 5.90897 29.5778 6.70811 29.5778C7.60716 29.1612 8.90577 29.057 9.50513 28.3279C10.0046 28.5362 10.4042 28.3279 10.7039 28.1195C10.7039 27.807 11.0035 27.807 10.9036 27.3904C10.9036 27.0779 10.7039 26.8696 10.8037 26.4529V23.4322C10.604 21.0365 10.8037 18.3282 10.5041 15.9325C11.4031 15.8283 12.402 15.8283 13.1013 15.5158C13.5009 14.995 13.5009 14.2659 13.6008 13.5367C13.8006 13.3284 13.8005 12.9117 13.8005 12.4951C14.0003 12.2868 13.9004 11.766 13.9004 11.3493C13.8006 10.7243 13.7007 9.99519 13.1013 9.89103C12.2023 9.6827 11.1034 10.516 10.1045 10.2035C10.1045 9.05772 9.80481 7.80776 10.1045 6.66197C10.9036 6.45365 11.6029 6.24532 12.3021 6.037ZM8.5062 11.0368C8.60609 11.3493 8.80588 11.5576 8.90578 11.766C9.00567 11.766 9.10556 11.766 9.10556 11.8701C10.3043 11.9743 11.3032 11.766 12.2023 11.5576C12.2023 12.5993 11.9026 13.3284 11.7028 14.1617C11.0035 14.1617 10.2044 14.4742 9.70492 14.37C9.40524 14.5784 9.30535 14.8908 9.10556 15.0992C9.10556 15.5158 9.20545 15.62 9.10556 15.9325C8.90577 16.0366 9.00567 16.5575 8.90578 16.7658V18.3282C9.00567 18.6407 8.80588 18.6407 8.80588 18.849V22.4947C8.70598 22.8072 8.90578 22.8072 8.90578 23.0156V26.1404C9.00567 26.4529 8.80588 26.9737 9.00567 27.0779C8.90577 27.4946 8.60609 27.0779 8.20652 27.1821C7.70705 27.2862 7.30748 27.5987 6.70811 27.5987C6.80801 27.1821 7.0078 26.9737 7.0078 26.4529C7.0078 26.0363 6.60822 26.1404 6.50833 25.9321C6.70812 25.3071 7.10769 24.7863 7.20758 24.0572C7.40737 23.5364 7.90684 22.7031 7.50727 22.1822C7.0078 22.0781 7.00779 22.4947 6.70811 22.5989C6.70811 22.7031 6.70812 22.8072 6.60822 22.8072C6.60822 22.9114 6.60822 23.0156 6.50833 23.0156C6.30854 23.1197 6.50833 23.1197 6.50833 23.0156C6.50833 22.9114 6.50833 22.8072 6.60822 22.8072C6.60822 22.7031 6.60822 22.5989 6.70811 22.5989V22.2864C7.10769 21.6614 7.40737 21.0365 7.50727 20.2032C7.70705 19.8907 7.80694 19.474 7.90684 19.1615C8.10662 18.849 8.20652 18.2241 8.00673 17.9116C7.50727 17.9116 7.20758 18.2241 7.10769 18.6407C6.80801 18.4324 7.30748 18.2241 7.20758 17.9116C7.30748 17.7032 7.40737 17.2866 7.50727 17.0783C7.70705 16.6616 8.10663 15.7241 7.50727 15.4117C7.10769 15.4117 6.9079 15.62 6.80801 15.9325C6.60822 16.1408 6.40844 16.3491 6.30854 16.6616C5.90897 16.5575 6.20865 15.9325 6.10876 15.5158C6.00886 14.995 6.20865 14.5784 6.10876 14.2659C5.50939 13.4326 4.11089 14.1617 2.91216 13.9534C2.81227 13.6409 2.71238 12.9117 2.81227 12.7034C3.81121 12.5993 5.30961 12.9117 6.00886 12.4951C6.00886 12.3909 6.00886 12.2868 6.10876 12.2868C6.20865 11.5576 5.80907 11.2451 5.60929 10.8285C5.80907 9.99519 5.60929 8.74523 5.70918 7.7036C5.90897 7.59944 6.00886 7.28695 6.20865 7.07863C6.30854 6.037 6.9079 5.51618 6.9079 4.47455C6.60822 4.47455 6.30854 4.37039 6.30854 4.68288C6.00886 4.57872 5.90897 5.20369 5.80908 4.8912C5.70918 4.37039 6.00886 4.26622 6.10876 3.84957C6.70812 3.43292 7.30748 3.01627 8.00673 2.59962C9.70492 2.3913 12.6018 2.18297 14.1002 2.80794C14.2001 3.43292 13.8006 3.74541 13.9004 4.37039H12.402C11.3032 4.57871 10.4042 5.09953 9.40524 5.41202C9.20546 5.51618 9.10556 5.72451 8.90578 5.82867C8.90578 6.24532 8.70599 6.45365 8.60609 6.8703C8.30641 8.32858 8.5062 9.57854 8.5062 11.0368Z" fill="black"/>
</svg>
