<svg width="101" height="77" viewBox="0 0 101 77" fill="none" xmlns="http://www.w3.org/2000/svg">
<path d="M96.2707 18.1C96.2707 18.1 95.3699 11.1 92.4671 7.99997C88.8637 3.99997 84.7598 3.89995 82.9581 3.69995C69.6454 2.69995 49.6263 2.69995 49.6263 2.69995H49.5262C49.5262 2.69995 29.5072 2.69995 16.1945 3.69995C14.2927 3.89995 10.2889 3.99997 6.68543 7.99997C3.88277 11.1 2.88181 18.1 2.88181 18.1C2.88181 18.1 1.98096 26.3 1.98096 34.5V42.2C1.98096 50.4 2.88181 58.6 2.88181 58.6C2.88181 58.6 3.78267 65.6 6.68543 68.7C10.2889 72.7 15.0934 72.6 17.1954 73C24.8027 73.8 49.6263 74 49.6263 74C49.6263 74 69.6454 74 82.9581 73C84.8599 72.8 88.8637 72.7 92.4671 68.7C95.2698 65.6 96.2707 58.6 96.2707 58.6C96.2707 58.6 97.1716 50.4 97.1716 42.2V34.5C97.1716 26.3 96.2707 18.1 96.2707 18.1Z" fill="#63D1BB"/>
<path d="M50.2479 76.8C49.2469 76.8 25.224 76.5 17.6168 75.8H17.5167H17.4166C17.1163 75.7 16.7159 75.7 16.3156 75.6C13.8132 75.3 9.10868 74.7 5.50524 70.6C2.102 67 1.10105 59.8 1.00095 59C1.00095 58.7 0 50.5 0 42.3V34.6C0 26.3 0.900867 18.2 0.900867 17.9V17.8C1.00096 17 2.10201 9.89998 5.40516 6.19998C9.40897 1.79998 13.9133 1.30001 16.1154 1.10001C16.3155 1.10001 16.5157 1.1 16.6158 1H16.7159C30.0286 0 50.0477 0 50.2479 0H50.348C50.5482 0 70.5672 0 83.8799 1H83.98C84.1802 1 84.2803 1.00001 84.4805 1.10001C86.6825 1.30001 91.1869 1.79998 95.1907 6.19998C98.5939 9.79998 99.5949 17 99.695 17.8C99.695 18.1 100.696 26.3 100.696 34.6V42.3C100.696 50.6 99.7951 58.7 99.695 59V59.1C99.5949 59.9 98.4938 67.1 95.1907 70.7C91.1869 75.1 86.6825 75.6 84.4805 75.8C84.2803 75.8 84.0801 75.8 83.98 75.9H83.8799C70.5672 76.8 50.4481 76.8 50.2479 76.8ZM18.3175 70.4C25.8246 71.1 49.5472 71.4 50.348 71.4C51.0486 71.4 70.4671 71.4 83.3794 70.4C83.5796 70.4 83.7798 70.4 83.98 70.3C85.7817 70.1 88.5844 69.8 91.1869 67C92.9886 65 94.0896 60.1 94.2898 58.4C94.3899 57.9 95.1907 50 95.1907 42.3V34.6C95.1907 26.8 94.2898 19 94.1897 18.5C93.8894 16.1 92.7884 11.7 91.0868 10C88.4843 7.1 85.6816 6.89998 83.8799 6.69998C83.6797 6.69998 83.4795 6.70001 83.2793 6.60001C70.1668 5.60001 50.4481 5.60001 50.2479 5.60001H50.1478C49.9476 5.60001 30.1287 5.60001 17.1163 6.60001C16.9161 6.60001 16.7159 6.59998 16.5157 6.69998C14.714 6.89998 11.9114 7.2 9.30888 10C7.50717 12 6.40611 16.9 6.20592 18.6C6.10583 19.2 5.30506 27 5.30506 34.7V42.4C5.30506 50.1 6.20592 58 6.20592 58.5C6.50621 60.9 7.60726 65.3 9.30888 67C11.6111 69.6 14.6139 70 16.816 70.3C17.4166 70.2 17.817 70.3 18.3175 70.4Z" fill="white"/>
<path d="M37.6147 20.5V56.2L67.4431 38.4L37.6147 20.5Z" fill="white"/>
</svg>
