<svg width="25" height="20" viewBox="0 0 25 20" fill="none" xmlns="http://www.w3.org/2000/svg">
<path d="M24.2246 4.39458C24.0246 3.99458 23.3246 4.09458 22.8246 3.99458H21.7246C21.8246 3.59458 22.0246 3.39458 22.2246 2.99458C22.3246 2.59458 22.5246 2.29458 22.4246 1.69458C22.5246 1.49458 22.6246 1.29458 22.7246 1.09458C22.8246 0.994578 22.9247 0.594581 22.8246 0.394581C22.7246 0.194581 22.5246 0.19458 22.2246 0.19458C22.1246 0.19458 22.0246 0.294579 22.0246 0.294579C21.6246 0.694579 21.2246 1.29458 20.7246 1.69458H20.6246C20.5246 1.69458 20.6246 1.69458 20.5246 1.79458C20.4246 1.89458 20.2246 1.99458 20.1246 1.99458C19.8246 2.19458 19.6246 2.39458 19.2246 2.49458C18.7246 2.29458 18.0247 2.19458 17.3246 2.09458C16.1247 2.19458 15.0246 2.29458 14.3246 2.79458C13.4247 3.09458 12.8246 3.79458 12.2246 4.39458C12.2246 4.69458 11.9246 4.79458 11.8246 5.09458C11.8246 5.09458 11.8246 5.19458 11.7246 5.19458C11.7246 5.39458 11.6246 5.49458 11.6246 5.69458C11.6246 5.79458 11.8246 6.09458 11.6246 6.19458C10.8246 6.09458 10.1246 5.59458 9.52465 5.19458C8.82465 4.79458 8.02465 4.59458 7.42465 4.09458C6.72465 3.79458 6.12465 3.29458 5.62465 2.79458C5.42465 2.49458 5.12465 2.29458 4.92465 1.89458C4.52465 1.69458 4.72465 0.994579 4.22465 0.994579C3.92465 0.994579 3.92465 1.19458 3.82465 1.39458C3.72465 1.59458 3.42465 1.59458 3.42465 1.89458C3.42465 1.89458 3.42465 1.99458 3.32465 1.99458C3.12465 3.09458 2.82465 3.99458 2.82465 5.29458C2.92465 5.69458 3.12465 5.99458 3.42465 6.29458C3.02465 6.39458 2.72465 6.49458 2.52465 6.79458C2.42465 7.89458 2.92465 8.39458 3.22465 9.09458C3.32465 9.49458 3.62465 9.79458 3.82465 10.0946C3.82465 10.2946 4.02465 10.3946 4.12465 10.4946C4.12465 10.5946 4.22465 10.5946 4.22465 10.6946C4.22465 10.7946 4.52465 10.8946 4.32465 10.8946C3.92465 10.9946 3.32465 10.9946 3.02465 11.2946C2.92465 11.5946 2.92465 12.0946 3.02465 12.3946C3.02465 12.5946 3.32465 12.6946 3.32465 12.8946C3.82465 13.2946 4.42465 13.5946 4.92465 13.9946C5.52465 14.1946 6.12465 14.2946 6.82465 14.3946C6.72465 14.6946 6.52465 14.9946 6.22465 15.0946C5.42465 15.4946 4.42465 15.5946 3.52465 15.7946C2.92465 15.7946 2.52465 15.9946 1.92465 15.9946C1.62465 16.0946 1.02465 16.0946 0.824646 16.1946C0.724646 16.2946 0.724646 16.2946 0.624646 16.3946C0.524646 16.7946 0.724647 17.0946 1.02465 17.2946C1.02465 17.5946 1.22465 17.5946 1.42465 17.6946C1.52465 17.8946 1.72465 17.9946 1.82465 18.0946C2.32465 18.5946 3.12465 18.8946 3.72465 19.1946C4.52465 19.3946 5.32465 19.5946 6.22465 19.6946C7.12465 19.7946 8.12465 19.7946 9.02465 19.8946H10.0246C10.5246 19.9946 11.2246 19.9946 11.9246 19.9946C12.0246 19.8946 12.2246 19.8946 12.4246 19.8946C12.9246 19.5946 13.6246 19.4946 14.0246 19.1946C14.6246 18.9946 15.0246 18.5946 15.6246 18.2946C16.5246 17.4946 17.5246 16.9946 18.1246 15.8946C18.3246 15.6946 18.5246 15.4946 18.5246 15.1946C18.8246 14.9946 18.9246 14.6946 19.1246 14.4946C19.5246 14.0946 19.8246 13.5946 20.1246 13.0946C20.4246 12.5946 20.7246 11.9946 21.0246 11.4946C21.0246 11.0946 21.3246 10.9946 21.3246 10.5946C21.5247 10.3946 21.5246 9.89458 21.7246 9.69458C21.7246 9.39458 21.7246 9.29458 21.8246 9.09458C21.8246 7.79458 21.8246 6.69458 21.5246 5.69458C22.1246 5.49458 22.7246 5.39458 23.1246 5.09458C23.9246 5.39458 24.4246 4.99458 24.2246 4.39458ZM20.8246 8.39458C20.6246 9.29458 20.2246 9.79458 19.8246 10.3946C19.9247 10.7946 19.7246 10.8946 19.7246 11.2946C19.5246 11.5946 19.4247 11.9946 19.3246 12.2946C19.1246 12.5946 19.0247 12.8946 18.8246 13.1946C18.4247 13.6946 18.0246 14.2946 17.6246 14.7946C17.2246 15.3946 16.7246 15.7946 16.3246 16.2946C15.9247 16.7946 15.4246 17.1946 14.9246 17.5946C14.4246 17.7946 14.0246 17.9946 13.6246 18.2946C13.4246 18.3946 13.1246 18.4946 12.9246 18.5946C12.7246 18.6946 12.4246 18.6946 12.2246 18.8946C11.1246 18.9946 9.92465 19.0946 8.62465 18.9946C7.62465 18.8946 6.52465 18.7946 5.62465 18.5946C4.72465 18.3946 4.12465 17.8946 3.32465 17.5946C3.52465 17.3946 3.92465 17.3946 4.32465 17.3946C4.32465 17.1946 4.72465 17.3946 4.72465 17.2946C5.02465 17.3946 5.02465 17.1946 5.22465 17.1946C5.82465 16.9946 6.42465 16.8946 6.92465 16.5946C7.22465 16.4946 7.32465 16.1946 7.62465 15.9946C7.62465 15.7946 7.72465 15.6946 7.82465 15.5946C7.82465 15.2946 8.02465 15.1946 7.92465 14.7946C8.02465 14.5946 8.22465 14.4946 8.22465 14.0946C8.12465 13.9946 8.12465 13.7946 7.92465 13.6946C7.92465 13.4946 7.52465 13.5946 7.52465 13.4946C7.22465 13.4946 7.12465 13.4946 6.92465 13.3946C6.72465 13.3946 6.42465 13.4946 6.42465 13.2946C5.62465 13.2946 5.12465 12.8946 4.52465 12.5946C4.92465 12.2946 5.52465 12.1946 5.82465 11.8946C6.32465 11.7946 6.92465 11.7946 6.92465 11.1946C6.92465 10.4946 6.12465 10.4946 5.62465 10.3946C4.82465 9.69458 4.42465 8.69458 3.82465 7.89458C4.02465 7.69458 4.42465 7.69458 4.52465 7.49458C5.02465 7.59458 5.02465 7.19458 5.22465 6.99458C5.22465 6.49458 4.92465 6.39458 4.62465 6.19458C4.32465 5.99458 4.12465 5.69458 3.92465 5.49458C3.92465 4.69458 3.92465 3.79458 4.02465 3.09458C4.12465 3.09458 4.12465 3.09458 4.12465 3.19458C4.32465 3.59458 4.72465 3.99458 4.92465 4.39458C5.42465 4.79458 5.82465 5.29458 6.52465 5.49458C7.02465 5.89458 7.62465 6.09458 8.12465 6.49458C8.72465 6.79458 9.32465 7.09458 9.82465 7.39458C10.5246 7.59458 10.9246 8.09458 11.8246 7.99458C12.0246 7.89458 12.2246 7.79458 12.4246 7.69458C12.7246 7.19458 12.3246 6.59458 12.5246 6.09458C12.8246 5.39458 13.3246 5.09458 13.8246 4.59458C14.1247 4.39458 14.4246 4.29458 14.6246 4.09458C14.9246 3.99458 15.3246 3.89458 15.6246 3.69458C16.0246 3.69458 16.3246 3.59458 16.6246 3.59458H17.9246C18.1246 3.69458 18.4246 3.69458 18.6246 3.69458C18.8246 3.79458 19.0247 3.99458 19.3246 4.09458C20.1246 4.79458 20.6246 5.79458 20.7246 7.09458C20.7246 7.39458 20.8246 7.79458 20.8246 8.39458ZM21.1246 2.79458C21.0246 3.09458 20.9246 3.49458 20.5246 3.59458C20.5246 3.49458 20.4246 3.49458 20.4246 3.39458C20.4246 3.19458 20.6246 3.19458 20.7246 3.09458C20.8246 2.99458 20.9246 2.79458 21.1246 2.79458C21.2246 2.79458 21.1246 2.69458 21.1246 2.79458ZM15.6246 5.79458C15.8246 5.89458 15.9246 6.09458 16.1246 6.19458C16.2246 6.39458 16.4246 6.49458 16.7246 6.59458C16.7246 6.39458 17.0246 6.59458 17.1246 6.39458C17.3246 6.39458 17.3246 6.19458 17.4246 6.09458C17.4246 5.59458 17.3246 5.09458 17.0246 4.79458C16.3246 4.29458 15.3246 4.79458 15.6246 5.79458Z" fill="black"/>
</svg>
